<svg width="21" height="18" viewBox="0 0 21 18" fill="none" xmlns="http://www.w3.org/2000/svg">
<path fill-rule="evenodd" clip-rule="evenodd" d="M20.9791 1.82822C21.0247 1.55074 20.9953 1.26608 20.894 1.00389C20.7926 0.741696 20.623 0.511573 20.4029 0.337493C20.1828 0.163414 19.9202 0.0517488 19.6425 0.0141321C19.3647 -0.0234846 19.082 0.0143236 18.8238 0.123618L0.958079 7.67167C-0.287295 8.19793 -0.351027 10.0053 0.958079 10.5504C2.25435 11.0929 3.56952 11.5887 4.90107 12.037C6.12137 12.4416 7.45241 12.8159 8.51913 12.9218C8.81062 13.2719 9.17734 13.6084 9.55137 13.9177C10.1229 14.3894 10.8103 14.8748 11.5208 15.3403C12.9438 16.2733 14.5224 17.1654 15.586 17.7462C16.8575 18.4381 18.3797 17.6414 18.6075 16.2502L20.9791 1.82822ZM2.96092 9.0995L18.7621 2.42472L16.5493 15.8854C15.5056 15.3162 14.0021 14.4639 12.6627 13.5854C12.0454 13.1877 11.4494 12.7576 10.8772 12.2969C10.7242 12.1716 10.5758 12.0408 10.4321 11.9049L14.5705 7.75344C14.7665 7.55686 14.8767 7.2902 14.8768 7.01211C14.8769 6.73401 14.7669 6.46727 14.571 6.27056C14.3751 6.07385 14.1093 5.96328 13.8322 5.96318C13.555 5.96309 13.2892 6.07346 13.0932 6.27004L8.56197 10.8167C7.7951 10.7181 6.72734 10.433 5.5551 10.0451C4.68239 9.75339 3.81665 9.43808 2.96092 9.0995Z" fill="white"/>
</svg>
