<svg width="19" height="14" viewBox="0 0 19 14" fill="none" xmlns="http://www.w3.org/2000/svg">
<g clip-path="url(#clip0_0_224)">
<mask id="mask0_0_224" style="mask-type:alpha" maskUnits="userSpaceOnUse" x="0" y="0" width="19" height="14">
<path d="M17.1321 0.237305H1.80338C0.807401 0.237305 0 1.04471 0 2.04069V11.9593C0 12.9553 0.807401 13.7627 1.80338 13.7627H17.1321C18.1281 13.7627 18.9355 12.9553 18.9355 11.9593V2.04069C18.9355 1.04471 18.1281 0.237305 17.1321 0.237305Z" fill="white"/>
</mask>
<g mask="url(#mask0_0_224)">
<path d="M17.1321 0.237305H1.80338C0.807401 0.237305 0 1.04471 0 2.04069V11.9593C0 12.9553 0.807401 13.7627 1.80338 13.7627H17.1321C18.1281 13.7627 18.9355 12.9553 18.9355 11.9593V2.04069C18.9355 1.04471 18.1281 0.237305 17.1321 0.237305Z" fill="#0034A9"/>
<path fill-rule="evenodd" clip-rule="evenodd" d="M0 9.25421H18.9355V13.7627H0V9.25421Z" fill="#D7280F"/>
<path fill-rule="evenodd" clip-rule="evenodd" d="M0 0.237305H18.9355V4.74576H0V0.237305Z" fill="white"/>
<path d="M17.1321 0.688171H1.8034C1.05642 0.688171 0.450867 1.29372 0.450867 2.04071V11.9593C0.450867 12.7063 1.05642 13.3118 1.8034 13.3118H17.1321C17.8791 13.3118 18.4847 12.7063 18.4847 11.9593V2.04071C18.4847 1.29372 17.8791 0.688171 17.1321 0.688171Z" stroke="black" stroke-opacity="0.1" stroke-width="0.901691"/>
</g>
</g>
<defs>
<clipPath id="clip0_0_224">
<rect width="18.9355" height="13.5254" fill="white" transform="translate(0 0.237305)"/>
</clipPath>
</defs>
</svg>
